<?xml version="1.0" encoding="UTF-8"?>
<svg id="Capa_1" xmlns="http://www.w3.org/2000/svg" xmlns:xlink="http://www.w3.org/1999/xlink" version="1.1" viewBox="0 0 1920 1080">
  <!-- Generator: Adobe Illustrator 29.4.0, SVG Export Plug-In . SVG Version: 2.1.0 Build 152)  -->
  <defs>
    <style>
      .st0 {
        fill: none;
      }

      .st1 {
        fill: #57b369;
      }

      .st2 {
        fill: #f3993e;
      }

      .st3 {
        fill: #51becf;
      }

      .st4 {
        fill: #58398d;
      }

      .st5 {
        clip-path: url(#clippath);
      }
    </style>
    <clipPath id="clippath">
      <rect class="st0" y="0" width="1920" height="1080"/>
    </clipPath>
  </defs>
  <g class="st5">
    <path class="st1" d="M122.61,676.83c63.86,0,117.4,24.61,159.18,73.2,16.2,18.36,35.73,28.06,56.5,28.06,38,0,68.92-30.01,68.92-66.89,0-19.27-7.16-36.43-22.45-53.9-61.02-73.44-159.03-117.29-262.15-117.29-202.74,0-361.56,154.37-361.56,351.43s158.37,351.43,360.54,351.43c104.16,0,202.17-43.86,262.15-117.28,15.32-18.38,22.45-35.51,22.45-53.91,0-36.89-30.47-66.9-67.91-66.9-20.93,0-39.7,9.14-57.52,28.07-43.34,49.25-95.07,73.19-158.16,73.19-122,0-210.55-89.83-210.55-213.58S.61,676.83,122.61,676.83"/>
    <path class="st2" d="M1627.07,796.17h-125.37c-34.59,0-62.74,28.15-62.74,62.74v127.45c0,33.89,27.57,61.47,61.47,61.47s61.47-27.58,61.47-61.47v-78.26h64.33c113.35,0,183.77,65.22,183.77,170.21s-72.13,173.6-183.77,173.6h-64.33v-78.26c0-33.9-27.58-61.47-61.47-61.47s-61.47,27.58-61.47,61.47v127.45c0,34.59,28.15,62.74,62.74,62.74h125.37c181.58,0,308.4-117.41,308.4-285.53s-123.94-282.14-308.4-282.14"/>
    <path class="st2" d="M2047.9,855.45c-27.3,0-47.12,20.09-47.12,47.76v352.08c0,27.67,19.82,47.76,47.12,47.76s46.47-20.53,46.47-47.76v-352.08c0-27.23-19.98-47.76-46.47-47.76"/>
    <path class="st2" d="M2047.58,806.47c30.78,0,55.73-24.95,55.73-55.74s-24.95-55.73-55.73-55.73-55.74,24.95-55.74,55.73,24.95,55.74,55.74,55.74"/>
    <path class="st3" d="M406.05-328.38c74.03,0,136.1,27.92,184.53,83.05,18.78,20.83,41.43,31.84,65.5,31.84,44.06,0,79.9-34.05,79.9-75.9,0-21.87-8.3-41.34-26.02-61.16-70.74-83.33-184.35-133.08-303.9-133.08C171.02-483.63-13.09-308.48-13.09-84.89s183.59,398.75,417.97,398.75c120.75,0,234.37-49.76,303.9-133.07,17.76-20.85,26.03-40.29,26.03-61.17,0-41.85-35.32-75.91-78.72-75.91-24.26,0-46.03,10.37-66.68,31.85-50.24,55.88-110.21,83.05-183.35,83.05-141.43,0-244.08-101.92-244.08-242.34s102.65-244.65,244.08-244.65"/>
    <path class="st4" d="M2205.52-21.34v-126.11c0-34.8-28.31-63.11-63.11-63.11h-128.2c-34.09,0-61.84,27.74-61.84,61.83s27.74,61.83,61.84,61.83h78.72V-22.2c0,114.02-65.61,184.86-171.22,184.86s-174.63-72.56-174.63-184.86v-64.71h78.72c34.09,0,61.83-27.74,61.83-61.83s-27.74-61.83-61.83-61.83h-128.2c-34.8,0-63.11,28.31-63.11,63.11V-21.34c0,182.66,118.11,310.23,287.22,310.23s283.81-124.67,283.81-310.23"/>
    <path class="st3" d="M2296.56,540.43c0-36.08-26.54-62.26-63.11-62.26h-465.26c-36.57,0-63.11,26.18-63.11,62.26s27.13,61.41,63.11,61.41h465.26c35.98,0,63.11-26.4,63.11-61.41"/>
  </g>
</svg>