<?xml version="1.0" encoding="UTF-8" standalone="no"?>
<svg
   id="Capa_1"
   version="1.1"
   viewBox="0 0 1080 1920"
   sodipodi:docname="bgm.svg"
   width="1080"
   height="1920"
   inkscape:version="1.2.2 (b0a8486541, 2022-12-01)"
   xmlns:inkscape="http://www.inkscape.org/namespaces/inkscape"
   xmlns:sodipodi="http://sodipodi.sourceforge.net/DTD/sodipodi-0.dtd"
   xmlns="http://www.w3.org/2000/svg"
   xmlns:svg="http://www.w3.org/2000/svg">
  <sodipodi:namedview
     id="namedview26"
     pagecolor="#ffffff"
     bordercolor="#000000"
     borderopacity="0.25"
     inkscape:showpageshadow="2"
     inkscape:pageopacity="0.0"
     inkscape:pagecheckerboard="0"
     inkscape:deskcolor="#d1d1d1"
     showgrid="false"
     inkscape:zoom="0.43854167"
     inkscape:cx="538.14727"
     inkscape:cy="598.57482"
     inkscape:window-width="1920"
     inkscape:window-height="1011"
     inkscape:window-x="0"
     inkscape:window-y="32"
     inkscape:window-maximized="1"
     inkscape:current-layer="g23" />
  <!-- Generator: Adobe Illustrator 29.4.0, SVG Export Plug-In . SVG Version: 2.1.0 Build 152)  -->
  <defs
     id="defs7">
    <style
       id="style2">
      .st0 {
        fill: none;
      }

      .st1 {
        fill: #57b369;
      }

      .st2 {
        fill: #f3993e;
      }

      .st3 {
        fill: #51becf;
      }

      .st4 {
        fill: #58398d;
      }

      .st5 {
        clip-path: url(#clippath);
      }
    </style>
    <clipPath
       id="clippath">
      <rect
         class="st0"
         y="0"
         width="1920"
         height="1080"
         id="rect4"
         x="0" />
    </clipPath>
  </defs>
  <g
     class="st5"
     clip-path="url(#clippath)"
     id="g23"
     transform="rotate(90,540,540)"
     inkscape:export-filename="jhgflkjhfsdgloia.svg"
     inkscape:export-xdpi="96"
     inkscape:export-ydpi="96">
    <path
       class="st1"
       d="m 122.61,676.83 c 63.86,0 117.4,24.61 159.18,73.2 16.2,18.36 35.73,28.06 56.5,28.06 38,0 68.92,-30.01 68.92,-66.89 0,-19.27 -7.16,-36.43 -22.45,-53.9 -61.02,-73.44 -159.03,-117.29 -262.15,-117.29 -202.74,0 -361.56,154.37 -361.56,351.43 0,197.06 158.37,351.43 360.54,351.43 104.16,0 202.17,-43.86 262.15,-117.28 15.32,-18.38 22.45,-35.51 22.45,-53.91 0,-36.89 -30.47,-66.9 -67.91,-66.9 -20.93,0 -39.7,9.14 -57.52,28.07 -43.34,49.25 -95.07,73.19 -158.16,73.19 -122,0 -210.55,-89.83 -210.55,-213.58 0,-123.75 88.56,-215.63 210.56,-215.63"
       id="path9" />
    <path
       class="st2"
       d="M 1627.07,796.17 H 1501.7 c -34.59,0 -62.74,28.15 -62.74,62.74 v 127.45 c 0,33.89 27.57,61.47 61.47,61.47 33.9,0 61.47,-27.58 61.47,-61.47 V 908.1 h 64.33 c 113.35,0 183.77,65.22 183.77,170.21 0,104.99 -72.13,173.6 -183.77,173.6 h -64.33 v -78.26 c 0,-33.9 -27.58,-61.47 -61.47,-61.47 -33.89,0 -61.47,27.58 -61.47,61.47 v 127.45 c 0,34.59 28.15,62.74 62.74,62.74 h 125.37 c 181.58,0 308.4,-117.41 308.4,-285.53 0,-168.12 -123.94,-282.14 -308.4,-282.14"
       id="path11" />
    <path
       class="st2"
       d="m 2047.9,855.45 c -27.3,0 -47.12,20.09 -47.12,47.76 v 352.08 c 0,27.67 19.82,47.76 47.12,47.76 27.3,0 46.47,-20.53 46.47,-47.76 V 903.21 c 0,-27.23 -19.98,-47.76 -46.47,-47.76"
       id="path13" />
    <path
       class="st2"
       d="m 2047.58,806.47 c 30.78,0 55.73,-24.95 55.73,-55.74 0,-30.79 -24.95,-55.73 -55.73,-55.73 -30.78,0 -55.74,24.95 -55.74,55.73 0,30.78 24.95,55.74 55.74,55.74"
       id="path15" />
    <path
       class="st3"
       d="m 170.29993,-306.73539 c 74.03,0 136.1,27.92 184.53,83.05 18.78,20.83 41.43,31.84 65.5,31.84 44.06,0 79.9,-34.05 79.9,-75.9 0,-21.87 -8.3,-41.34 -26.02,-61.16 -70.74,-83.33 -184.35,-133.08 -303.9,-133.08 -235.040004,0 -419.15,175.15 -419.15,398.740005 0,223.589995 183.589996,398.749995 417.97,398.749995 120.75,0 234.37,-49.76 303.9,-133.07 17.76,-20.85 26.03,-40.29 26.03,-61.17 0,-41.849995 -35.32,-75.909995 -78.72,-75.909995 -24.26,0 -46.03,10.37 -66.68,31.85 -50.24,55.879995 -110.21,83.049995 -183.35,83.049995 -141.430004,0 -244.080004,-101.919995 -244.080004,-242.339995 0,-140.420005 102.65,-244.650005 244.080004,-244.650005"
       id="path17" />
    <path
       class="st4"
       d="M 2001.6918,16.700148 V -109.40985 c 0,-34.8 -28.31,-63.11 -63.11,-63.11 h -128.2 c -34.09,0 -61.84,27.74 -61.84,61.83 0,34.089998 27.74,61.829998 61.84,61.829998 h 78.72 v 64.7 c 0,114.020002 -65.61,184.860002 -171.22,184.860002 -105.61,0 -174.63,-72.56 -174.63,-184.860002 v -64.71 h 78.72 c 34.09,0 61.83,-27.74 61.83,-61.829998 0,-34.09 -27.74,-61.83 -61.83,-61.83 h -128.2 c -34.8,0 -63.11,28.31 -63.11,63.11 V 16.700148 c 0,182.660002 118.11,310.230002 287.22,310.230002 169.11,0 283.81,-124.67 283.81,-310.230002"
       id="path19" />
    <path
       class="st3"
       d="m 2296.56,540.43 c 0,-36.08 -26.54,-62.26 -63.11,-62.26 h -465.26 c -36.57,0 -63.11,26.18 -63.11,62.26 0,36.08 27.13,61.41 63.11,61.41 h 465.26 c 35.98,0 63.11,-26.4 63.11,-61.41"
       id="path21" />
  </g>
</svg>
