<svg width="1090" height="596" viewBox="0 0 1090 596" fill="none" xmlns="http://www.w3.org/2000/svg">
<g clip-path="url(#clip0_1_59)">
<mask id="mask0_1_59" style="mask-type:luminance" maskUnits="userSpaceOnUse" x="-425" y="-423" width="1862" height="1441">
<path d="M-424.545 -422.246H1436.13V1017.75H-424.545V-422.246Z" fill="white"/>
</mask>
<g mask="url(#mask0_1_59)">
<path d="M225.5 242.481C265.328 242.481 298.721 257.831 324.779 288.133C334.881 299.581 347.067 305.633 360.017 305.633C383.721 305.633 403.003 286.917 403.003 263.912C403.003 251.892 398.537 241.188 389.003 230.292C350.941 184.487 289.819 157.141 225.5 157.141C99.052 157.141 0 253.417 0 376.324C0 499.232 98.7747 595.508 224.869 595.508C289.832 595.508 350.96 568.155 388.368 522.364C397.923 510.9 402.372 500.216 402.372 488.74C402.372 465.733 383.371 447.016 360.017 447.016C346.964 447.016 335.255 452.716 324.144 464.523C297.116 495.239 264.849 510.171 225.5 510.171C149.409 510.171 94.1813 454.148 94.1813 376.959C94.1813 299.037 149.409 242.481 225.5 242.481Z" fill="#F47216"/>
<path d="M615.65 164.718H522.182C496.392 164.718 475.408 185.702 475.408 211.493V306.507C475.408 331.775 495.965 352.335 521.234 352.335C546.505 352.335 567.064 331.775 567.064 306.507V248.162H615.018C699.525 248.162 752.021 296.789 752.021 375.062C752.021 453.685 698.245 504.486 615.018 504.486H567.064V446.141C567.064 420.873 546.505 400.314 521.234 400.314C495.965 400.314 475.408 420.873 475.408 446.141V541.155C475.408 566.946 496.392 587.93 522.182 587.93H615.65C751.024 587.93 845.57 500.394 845.57 375.062C845.57 249.249 753.173 164.718 615.65 164.718Z" fill="#F47216"/>
<path d="M957.313 157.141C930.574 157.141 911.17 176.813 911.17 203.915V548.735C911.17 575.837 930.574 595.507 957.313 595.507C983.26 595.507 1002.83 575.399 1002.83 548.735V203.915C1002.83 177.25 983.26 157.141 957.313 157.141Z" fill="#F47216"/>
<path d="M956.999 109.169C987.146 109.169 1011.58 84.7307 1011.58 54.5814C1011.58 24.44 987.146 4.71971e-05 956.999 4.71971e-05C926.847 4.71971e-05 902.413 24.44 902.413 54.5814C902.413 84.7307 926.847 109.169 956.999 109.169Z" fill="#F47216"/>
</g>
</g>
<g clip-path="url(#clip1_1_59)">
<mask id="mask1_1_59" style="mask-type:luminance" maskUnits="userSpaceOnUse" x="-389" y="-423" width="1862" height="1441">
<path d="M-388.545 -422.246H1472.13V1017.75H-388.545V-422.246Z" fill="white"/>
</mask>
<g mask="url(#mask1_1_59)">
<path d="M261.5 242.481C301.328 242.481 334.721 257.831 360.779 288.133C370.881 299.581 383.067 305.633 396.017 305.633C419.721 305.633 439.003 286.917 439.003 263.912C439.003 251.892 434.537 241.188 425.003 230.292C386.941 184.487 325.819 157.141 261.5 157.141C135.052 157.141 36 253.417 36 376.324C36 499.232 134.775 595.508 260.869 595.508C325.832 595.508 386.96 568.155 424.368 522.364C433.923 510.9 438.372 500.216 438.372 488.74C438.372 465.733 419.371 447.016 396.017 447.016C382.964 447.016 371.255 452.716 360.144 464.523C333.116 495.239 300.849 510.171 261.5 510.171C185.409 510.171 130.181 454.148 130.181 376.959C130.181 299.037 185.409 242.481 261.5 242.481Z" fill="#4CBE5E"/>
<path d="M651.65 164.718H558.182C532.392 164.718 511.408 185.702 511.408 211.493V306.507C511.408 331.775 531.965 352.335 557.234 352.335C582.505 352.335 603.064 331.775 603.064 306.507V248.162H651.018C735.525 248.162 788.021 296.789 788.021 375.062C788.021 453.685 734.245 504.486 651.018 504.486H603.064V446.141C603.064 420.873 582.505 400.314 557.234 400.314C531.965 400.314 511.408 420.873 511.408 446.141V541.155C511.408 566.946 532.392 587.93 558.182 587.93H651.65C787.024 587.93 881.57 500.394 881.57 375.062C881.57 249.249 789.173 164.718 651.65 164.718Z" fill="#4CBE5E"/>
<path d="M993.313 157.141C966.574 157.141 947.17 176.813 947.17 203.915V548.735C947.17 575.837 966.574 595.507 993.313 595.507C1019.26 595.507 1038.83 575.399 1038.83 548.735V203.915C1038.83 177.25 1019.26 157.141 993.313 157.141Z" fill="#4CBE5E"/>
<path d="M992.999 109.169C1023.15 109.169 1047.58 84.7307 1047.58 54.5814C1047.58 24.44 1023.15 4.71971e-05 992.999 4.71971e-05C962.847 4.71971e-05 938.413 24.44 938.413 54.5814C938.413 84.7307 962.847 109.169 992.999 109.169Z" fill="#4CBE5E"/>
</g>
</g>
<g clip-path="url(#clip2_1_59)">
<mask id="mask2_1_59" style="mask-type:luminance" maskUnits="userSpaceOnUse" x="-347" y="-423" width="1862" height="1441">
<path d="M-346.546 -422.246H1514.13V1017.75H-346.546V-422.246Z" fill="white"/>
</mask>
<g mask="url(#mask2_1_59)">
<path d="M303.499 242.481C343.327 242.481 376.72 257.831 402.778 288.133C412.88 299.581 425.066 305.633 438.016 305.633C461.72 305.633 481.002 286.917 481.002 263.912C481.002 251.892 476.536 241.188 467.002 230.292C428.94 184.487 367.818 157.141 303.499 157.141C177.051 157.141 77.999 253.417 77.999 376.324C77.999 499.232 176.774 595.508 302.868 595.508C367.831 595.508 428.959 568.155 466.367 522.364C475.922 510.9 480.371 500.216 480.371 488.74C480.371 465.733 461.37 447.016 438.016 447.016C424.963 447.016 413.254 452.716 402.143 464.523C375.115 495.239 342.848 510.171 303.499 510.171C227.408 510.171 172.18 454.148 172.18 376.959C172.18 299.037 227.408 242.481 303.499 242.481Z" fill="#4EC4CF"/>
<path d="M693.649 164.718H600.181C574.391 164.718 553.407 185.702 553.407 211.493V306.507C553.407 331.775 573.964 352.335 599.233 352.335C624.504 352.335 645.063 331.775 645.063 306.507V248.162H693.017C777.524 248.162 830.02 296.789 830.02 375.062C830.02 453.685 776.244 504.486 693.017 504.486H645.063V446.141C645.063 420.873 624.504 400.314 599.233 400.314C573.964 400.314 553.407 420.873 553.407 446.141V541.155C553.407 566.946 574.391 587.93 600.181 587.93H693.649C829.023 587.93 923.569 500.394 923.569 375.062C923.569 249.249 831.172 164.718 693.649 164.718Z" fill="#4EC4CF"/>
<path d="M1035.31 157.141C1008.57 157.141 989.169 176.813 989.169 203.915V548.735C989.169 575.837 1008.57 595.507 1035.31 595.507C1061.26 595.507 1080.82 575.399 1080.82 548.735V203.915C1080.82 177.25 1061.26 157.141 1035.31 157.141Z" fill="#4EC4CF"/>
<path d="M1035 109.169C1065.14 109.169 1089.58 84.7307 1089.58 54.5814C1089.58 24.44 1065.14 4.71971e-05 1035 4.71971e-05C1004.85 4.71971e-05 980.412 24.44 980.412 54.5814C980.412 84.7307 1004.85 109.169 1035 109.169Z" fill="#4EC4CF"/>
</g>
</g>
<defs>
<clipPath id="clip0_1_59">
<rect width="1011.58" height="595.508" fill="white"/>
</clipPath>
<clipPath id="clip1_1_59">
<rect width="1011.58" height="595.508" fill="white" transform="translate(36)"/>
</clipPath>
<clipPath id="clip2_1_59">
<rect width="1011.58" height="595.508" fill="white" transform="translate(78)"/>
</clipPath>
</defs>
</svg>
