<?xml version="1.0" encoding="UTF-8" standalone="no"?>
<!-- Created with Inkscape (http://www.inkscape.org/) -->

<svg
   version="1.1"
   id="svg2"
   width="1031.7389"
   height="595.79395"
   viewBox="0 0 1031.7389 595.79395"
   sodipodi:docname="Logo_Azul_Chile.ai"
   xml:space="preserve"
   xmlns:inkscape="http://www.inkscape.org/namespaces/inkscape"
   xmlns:sodipodi="http://sodipodi.sourceforge.net/DTD/sodipodi-0.dtd"
   xmlns="http://www.w3.org/2000/svg"
   xmlns:svg="http://www.w3.org/2000/svg"><defs
     id="defs6"><clipPath
       clipPathUnits="userSpaceOnUse"
       id="clipPath18"><path
         d="M 0,1080 H 1395.505 V 0 H 0 Z"
         id="path16" /></clipPath><clipPath
       clipPathUnits="userSpaceOnUse"
       id="clipPath381"><path
         d="M 0,1080 H 1395.505 V 0 H 0 Z"
         id="path379" /></clipPath><clipPath
       clipPathUnits="userSpaceOnUse"
       id="clipPath605"><path
         d="M 0,1080 H 1395.505 V 0 H 0 Z"
         id="path603" /></clipPath><clipPath
       clipPathUnits="userSpaceOnUse"
       id="clipPath777"><path
         d="M 0,446.631 H 758.687 V 0 H 0 Z"
         id="path775" /></clipPath></defs><sodipodi:namedview
     id="namedview4"
     pagecolor="#ffffff"
     bordercolor="#000000"
     borderopacity="0.25"
     inkscape:showpageshadow="2"
     inkscape:pageopacity="0.0"
     inkscape:pagecheckerboard="0"
     inkscape:deskcolor="#d1d1d1"
     showgrid="false" /><g
     id="g375"
     transform="matrix(1.3333333,0,0,-1.3333333,-424.54491,1017.754)"
     inkscape:export-filename="g375.svg"
     inkscape:export-xdpi="96"
     inkscape:export-ydpi="96"><g
       id="g377"
       clip-path="url(#clipPath381)"><g
         id="g383"
         transform="translate(487.5337,581.4546)"><path
           d="m 0,0 c 29.871,0 54.916,-11.512 74.459,-34.239 7.577,-8.586 16.716,-13.125 26.429,-13.125 17.778,0 32.239,14.037 32.239,31.291 0,9.015 -3.349,17.043 -10.5,25.215 C 94.081,43.496 48.239,64.005 0,64.005 c -94.836,0 -169.125,-72.207 -169.125,-164.387 0,-92.181 74.081,-164.388 168.652,-164.388 48.722,0 94.568,20.515 122.624,54.858 7.166,8.598 10.503,16.611 10.503,25.218 0,17.255 -14.251,31.293 -31.766,31.293 -9.79,0 -18.572,-4.275 -26.905,-13.13 C 53.712,-189.568 29.512,-200.767 0,-200.767 c -57.068,0 -98.489,42.017 -98.489,99.909 C -98.489,-42.417 -57.068,0 0,0"
           style="fill:#f47216;fill-opacity:1;fill-rule:nonzero;stroke:none"
           id="path385" /></g><g
         id="g387"
         transform="translate(780.1465,639.7769)"><path
           d="m 0,0 h -70.101 c -19.343,0 -35.081,-15.738 -35.081,-35.081 v -71.261 c 0,-18.951 15.418,-34.371 34.37,-34.371 18.953,0 34.372,15.42 34.372,34.371 v 43.759 h 35.966 c 63.38,0 102.752,-36.47 102.752,-95.175 0,-58.967 -40.332,-97.068 -102.752,-97.068 H -36.44 v 43.759 c 0,18.951 -15.419,34.37 -34.372,34.37 -18.952,0 -34.37,-15.419 -34.37,-34.37 v -71.261 c 0,-19.343 15.738,-35.081 35.081,-35.081 H 0 c 101.53,0 172.44,65.652 172.44,159.651 C 172.44,-63.398 103.142,0 0,0"
           style="fill:#f47216;fill-opacity:1;fill-rule:nonzero;stroke:none"
           id="path389" /></g><g
         id="g391"
         transform="translate(1036.3936,645.46)"><path
           d="m 0,0 c -20.054,0 -34.607,-14.754 -34.607,-35.081 v -258.615 c 0,-20.326 14.553,-35.079 34.607,-35.079 19.46,0 34.134,15.081 34.134,35.079 V -35.081 C 34.134,-15.082 19.46,0 0,0"
           style="fill:#f47216;fill-opacity:1;fill-rule:nonzero;stroke:none"
           id="path393" /></g><g
         id="g395"
         transform="translate(1036.1582,681.4385)"><path
           d="M 0,0 C 22.61,0 40.938,18.329 40.938,40.941 40.938,63.547 22.61,81.877 0,81.877 -22.614,81.877 -40.94,63.547 -40.94,40.941 -40.94,18.329 -22.614,0 0,0"
           style="fill:#f47216;fill-opacity:1;fill-rule:nonzero;stroke:none"
           id="path397" /></g></g></g><g
     id="g599"
     transform="matrix(1.3333333,0,0,-1.3333333,-404.38944,1018.0401)"><g
       id="g601"
       clip-path="url(#clipPath605)"><g
         id="g607"
         transform="translate(487.5337,581.4546)"><path
           d="m 0,0 c 29.871,0 54.916,-11.512 74.459,-34.239 7.577,-8.586 16.716,-13.125 26.429,-13.125 17.778,0 32.239,14.037 32.239,31.291 0,9.015 -3.349,17.043 -10.5,25.215 C 94.081,43.496 48.239,64.005 0,64.005 c -94.836,0 -169.125,-72.207 -169.125,-164.387 0,-92.181 74.081,-164.388 168.652,-164.388 48.722,0 94.568,20.515 122.624,54.858 7.166,8.598 10.503,16.611 10.503,25.218 0,17.255 -14.251,31.293 -31.766,31.293 -9.79,0 -18.572,-4.275 -26.905,-13.13 C 53.712,-189.568 29.512,-200.767 0,-200.767 c -57.068,0 -98.489,42.017 -98.489,99.909 C -98.489,-42.417 -57.068,0 0,0"
           style="fill:#4cbe5e;fill-opacity:1;fill-rule:nonzero;stroke:none"
           id="path609" /></g><g
         id="g611"
         transform="translate(780.1465,639.7769)"><path
           d="m 0,0 h -70.101 c -19.343,0 -35.081,-15.738 -35.081,-35.081 v -71.261 c 0,-18.951 15.418,-34.371 34.37,-34.371 18.953,0 34.372,15.42 34.372,34.371 v 43.759 h 35.966 c 63.38,0 102.752,-36.47 102.752,-95.175 0,-58.967 -40.332,-97.068 -102.752,-97.068 H -36.44 v 43.759 c 0,18.951 -15.419,34.37 -34.372,34.37 -18.952,0 -34.37,-15.419 -34.37,-34.37 v -71.261 c 0,-19.343 15.738,-35.081 35.081,-35.081 H 0 c 101.53,0 172.44,65.652 172.44,159.651 C 172.44,-63.398 103.142,0 0,0"
           style="fill:#4cbe5e;fill-opacity:1;fill-rule:nonzero;stroke:none"
           id="path613" /></g><g
         id="g615"
         transform="translate(1036.3936,645.46)"><path
           d="m 0,0 c -20.054,0 -34.607,-14.754 -34.607,-35.081 v -258.615 c 0,-20.326 14.553,-35.079 34.607,-35.079 19.46,0 34.134,15.081 34.134,35.079 V -35.081 C 34.134,-15.082 19.46,0 0,0"
           style="fill:#4cbe5e;fill-opacity:1;fill-rule:nonzero;stroke:none"
           id="path617" /></g><g
         id="g619"
         transform="translate(1036.1582,681.4385)"><path
           d="M 0,0 C 22.61,0 40.938,18.329 40.938,40.941 40.938,63.547 22.61,81.877 0,81.877 -22.614,81.877 -40.94,63.547 -40.94,40.941 -40.94,18.329 -22.614,0 0,0"
           style="fill:#4cbe5e;fill-opacity:1;fill-rule:nonzero;stroke:none"
           id="path621" /></g></g></g><g
     id="g771"
     transform="matrix(1.3333333,0,0,-1.3333333,18425.791,-9.9871236)"><g
       id="g773"
       clip-path="url(#clipPath777)"><g
         id="g779"
         transform="translate(169.1245,264.7701)"><path
           d="m 0,0 c 29.871,0 54.916,-11.512 74.459,-34.239 7.577,-8.586 16.716,-13.125 26.429,-13.125 17.778,0 32.239,14.037 32.239,31.291 0,9.015 -3.349,17.043 -10.5,25.215 C 94.081,43.496 48.239,64.005 0,64.005 c -94.836,0 -169.125,-72.207 -169.125,-164.387 0,-92.181 74.081,-164.388 168.652,-164.388 48.722,0 94.568,20.515 122.624,54.858 7.166,8.598 10.503,16.611 10.503,25.218 0,17.255 -14.251,31.293 -31.766,31.293 -9.79,0 -18.572,-4.275 -26.905,-13.13 C 53.712,-189.568 29.512,-200.767 0,-200.767 c -57.068,0 -98.489,42.018 -98.489,99.909 C -98.489,-42.417 -57.068,0 0,0"
           style="fill:#ee2824;fill-opacity:1;fill-rule:nonzero;stroke:none"
           id="path781" /></g><g
         id="g783"
         transform="translate(461.7373,323.0923)"><path
           d="m 0,0 h -70.101 c -19.343,0 -35.081,-15.738 -35.081,-35.081 v -71.261 c 0,-18.951 15.418,-34.371 34.37,-34.371 18.953,0 34.372,15.42 34.372,34.371 v 43.759 h 35.966 c 63.38,0 102.752,-36.47 102.752,-95.175 0,-58.967 -40.332,-97.068 -102.752,-97.068 H -36.44 v 43.759 c 0,18.951 -15.419,34.37 -34.372,34.37 -18.952,0 -34.37,-15.419 -34.37,-34.37 v -71.261 c 0,-19.343 15.738,-35.081 35.081,-35.081 H 0 c 101.53,0 172.44,65.652 172.44,159.651 C 172.44,-63.398 103.142,0 0,0"
           style="fill:#ee2824;fill-opacity:1;fill-rule:nonzero;stroke:none"
           id="path785" /></g><g
         id="g787"
         transform="translate(717.9844,328.7755)"><path
           d="m 0,0 c -20.054,0 -34.607,-14.754 -34.607,-35.081 v -258.615 c 0,-20.326 14.553,-35.079 34.607,-35.079 19.46,0 34.134,15.081 34.134,35.079 V -35.081 C 34.134,-15.082 19.46,0 0,0"
           style="fill:#ee2824;fill-opacity:1;fill-rule:nonzero;stroke:none"
           id="path789" /></g><g
         id="g791"
         transform="translate(717.749,364.754)"><path
           d="M 0,0 C 22.61,0 40.938,18.329 40.938,40.941 40.938,63.547 22.61,81.877 0,81.877 -22.614,81.877 -40.94,63.547 -40.94,40.941 -40.94,18.329 -22.614,0 0,0"
           style="fill:#ee2824;fill-opacity:1;fill-rule:nonzero;stroke:none"
           id="path793" /></g></g><g
       id="g12"
       transform="translate(-14107.216,-770.48746)"><g
         id="g14"
         clip-path="url(#clipPath18)"><g
           id="g20"
           transform="translate(487.5337,581.4546)"><path
             d="m 0,0 c 29.871,0 54.916,-11.512 74.459,-34.239 7.577,-8.586 16.716,-13.125 26.429,-13.125 17.778,0 32.239,14.037 32.239,31.291 0,9.015 -3.349,17.043 -10.5,25.215 C 94.081,43.496 48.239,64.005 0,64.005 c -94.836,0 -169.125,-72.207 -169.125,-164.387 0,-92.181 74.081,-164.388 168.652,-164.388 48.722,0 94.568,20.515 122.624,54.858 7.166,8.598 10.503,16.611 10.503,25.218 0,17.255 -14.251,31.293 -31.766,31.293 -9.79,0 -18.572,-4.275 -26.905,-13.13 C 53.712,-189.568 29.512,-200.767 0,-200.767 c -57.068,0 -98.489,42.017 -98.489,99.909 C -98.489,-42.417 -57.068,0 0,0"
             style="fill:#4ec4cf;fill-opacity:1;fill-rule:nonzero;stroke:none"
             id="path22" /></g><g
           id="g24"
           transform="translate(780.1465,639.7769)"><path
             d="m 0,0 h -70.101 c -19.343,0 -35.081,-15.738 -35.081,-35.081 v -71.261 c 0,-18.951 15.418,-34.371 34.37,-34.371 18.953,0 34.372,15.42 34.372,34.371 v 43.759 h 35.966 c 63.38,0 102.752,-36.47 102.752,-95.175 0,-58.967 -40.332,-97.068 -102.752,-97.068 H -36.44 v 43.759 c 0,18.951 -15.419,34.37 -34.372,34.37 -18.952,0 -34.37,-15.419 -34.37,-34.37 v -71.261 c 0,-19.343 15.738,-35.081 35.081,-35.081 H 0 c 101.53,0 172.44,65.652 172.44,159.651 C 172.44,-63.398 103.142,0 0,0"
             style="fill:#4ec4cf;fill-opacity:1;fill-rule:nonzero;stroke:none"
             id="path26" /></g><g
           id="g28"
           transform="translate(1036.3936,645.46)"><path
             d="m 0,0 c -20.054,0 -34.607,-14.754 -34.607,-35.081 v -258.615 c 0,-20.326 14.553,-35.079 34.607,-35.079 19.46,0 34.134,15.081 34.134,35.079 V -35.081 C 34.134,-15.082 19.46,0 0,0"
             style="fill:#4ec4cf;fill-opacity:1;fill-rule:nonzero;stroke:none"
             id="path30" /></g><g
           id="g32"
           transform="translate(1036.1582,681.4385)"><path
             d="M 0,0 C 22.61,0 40.938,18.329 40.938,40.941 40.938,63.547 22.61,81.877 0,81.877 -22.614,81.877 -40.94,63.547 -40.94,40.941 -40.94,18.329 -22.614,0 0,0"
             style="fill:#4ec4cf;fill-opacity:1;fill-rule:nonzero;stroke:none"
             id="path34" /></g></g></g></g></svg>
